<?xml version="1.0" standalone="no"?>
<!DOCTYPE svg PUBLIC "-//W3C//DTD SVG 20010904//EN"
 "http://www.w3.org/TR/2001/REC-SVG-20010904/DTD/svg10.dtd">
<svg version="1.0" xmlns="http://www.w3.org/2000/svg"
 width="447.000000pt" height="559.000000pt" viewBox="0 0 447.000000 559.000000"
 preserveAspectRatio="xMidYMid meet">

<g transform="translate(0.000000,559.000000) scale(0.100000,-0.100000)"
fill="#000000" stroke="none">
<path d="M2163 5340 c-43 -22 -159 -79 -258 -126 -298 -143 -482 -231 -642
-310 l-153 -75 0 -288 0 -288 -90 -41 -90 -41 2 -273 3 -272 88 -35 87 -34 0
-74 0 -74 166 -164 166 -165 -161 0 -161 0 0 -565 0 -565 105 0 105 0 0 460 0
460 683 -2 682 -3 5 -247 c4 -184 8 -250 18 -260 10 -10 70 -14 237 -16 l225
-3 0 -195 0 -194 105 0 105 0 0 265 0 265 -118 122 c-65 68 -163 170 -217 226
-55 57 -101 109 -103 116 -1 6 99 115 222 241 l226 230 0 72 0 71 38 13 c71
23 133 59 142 84 5 13 9 128 9 254 0 229 0 231 -24 259 -13 16 -41 34 -62 40
-21 6 -53 21 -70 32 l-33 20 -2 285 -3 286 -65 33 c-36 19 -112 56 -170 84
-58 28 -175 84 -260 125 -85 41 -200 95 -255 121 -55 26 -107 50 -115 55 -129
67 -264 131 -277 131 -6 0 -47 -18 -90 -40z m37 -433 l0 -214 -41 -19 c-105
-47 -132 -209 -50 -298 32 -35 101 -66 147 -66 57 0 125 36 159 83 27 37 30
50 30 112 0 64 -3 74 -32 111 -17 22 -48 49 -67 59 l-36 20 0 212 c0 117 3
213 6 213 3 0 66 -29 140 -65 l134 -65 0 -101 c0 -93 -2 -103 -25 -131 -36
-42 -40 -72 -18 -110 50 -87 167 -71 188 25 5 19 -1 41 -19 73 -22 38 -26 60
-26 121 0 41 4 73 8 71 5 -1 54 -25 110 -53 l102 -49 0 -150 0 -150 -100 -101
-100 -102 0 -96 c0 -90 -2 -97 -22 -108 -49 -26 -92 -70 -104 -106 -30 -84
-12 -163 51 -223 34 -33 40 -35 113 -38 91 -4 124 12 174 83 l32 46 121 -3
120 -3 3 -175 c1 -96 0 -184 -2 -196 -3 -12 -75 -91 -159 -177 l-154 -155 -40
41 c-22 23 -75 83 -119 132 -43 50 -88 98 -99 107 -18 16 -53 17 -345 18
l-325 0 -77 77 -78 78 0 62 c0 55 2 62 23 68 32 10 87 64 103 102 8 18 14 57
14 86 0 43 -6 62 -28 93 -31 43 -53 63 -86 79 -20 10 -21 19 -24 158 l-3 147
54 24 c59 26 87 60 94 117 9 61 -5 108 -43 145 -34 35 -34 35 -34 127 0 96 6
137 21 137 5 0 73 31 151 70 79 38 146 70 151 70 4 0 7 -96 7 -213z m-440 -61
c0 -58 -2 -65 -22 -72 -13 -3 -42 -22 -65 -40 -34 -28 -43 -43 -49 -79 -10
-71 3 -128 36 -161 l29 -29 1 -161 0 -162 -26 -17 c-49 -32 -77 -60 -90 -92
l-14 -33 -125 0 -125 0 0 350 0 351 43 18 c59 26 315 148 357 171 19 11 38 20
43 20 4 0 7 -29 7 -64z m1397 -126 c6 0 19 -7 27 -16 14 -13 16 -59 16 -344 0
-181 -3 -335 -6 -344 -5 -13 -26 -16 -125 -16 l-119 0 -20 41 c-12 22 -41 54
-65 71 -39 28 -45 36 -45 69 0 20 -3 50 -6 66 -5 27 3 39 106 140 l111 110 -1
129 c-1 71 -1 135 -1 142 1 8 20 3 59 -18 31 -16 62 -30 69 -30z m-1327 -70
c40 -40 14 -110 -41 -110 -37 0 -69 32 -69 69 0 55 70 81 110 41z m484 -85
c56 -51 17 -145 -60 -145 -23 0 -41 8 -59 27 -31 34 -32 75 -4 114 27 39 84
41 123 4z m-745 -698 c10 -25 95 -107 111 -107 6 0 10 -35 10 -88 l0 -88 109
-107 108 -107 331 0 332 0 17 -26 c9 -14 28 -38 42 -53 90 -94 167 -188 164
-198 -4 -10 -120 -13 -535 -13 l-530 0 -209 209 -209 210 0 195 0 196 125 0
c121 0 126 -1 134 -23z m1459 -1290 c28 -31 52 -58 52 -60 0 -2 -48 -4 -107
-3 l-108 1 -3 120 -3 120 58 -61 c32 -34 82 -87 111 -117z"/>
<path d="M3562 4502 l3 -135 60 -22 c81 -30 208 -81 276 -111 31 -13 62 -24
68 -24 7 0 26 -7 42 -16 l30 -15 -2 -697 -2 -697 84 -62 c46 -34 96 -71 110
-82 l27 -20 11 127 c8 88 11 356 9 867 l-3 739 -60 24 c-33 13 -91 37 -130 52
-38 15 -95 37 -125 50 -30 12 -82 33 -115 45 -33 13 -82 32 -110 44 -27 11
-78 31 -113 45 l-63 24 3 -136z"/>
<path d="M815 4584 c-60 -25 -123 -49 -140 -54 -27 -9 -59 -22 -235 -95 -30
-13 -86 -35 -125 -50 -38 -15 -73 -30 -77 -34 -10 -8 -12 -1568 -3 -1658 l7
-71 57 39 c31 21 82 58 115 82 l58 42 -1 698 -2 698 43 19 c24 11 48 20 55 20
6 0 41 14 76 30 36 17 70 30 76 30 6 0 34 11 63 24 29 13 77 31 106 41 37 12
54 23 57 38 9 37 1 240 -10 243 -5 2 -59 -17 -120 -42z"/>
<path d="M3235 3034 c-38 -41 -71 -80 -73 -87 -3 -14 71 -85 132 -127 36 -25
83 -59 170 -122 25 -18 88 -62 141 -98 52 -36 127 -87 164 -115 38 -27 96 -69
129 -93 l60 -43 -22 -82 c-77 -284 -275 -656 -469 -878 -8 -9 -25 -31 -38 -48
-12 -17 -26 -31 -31 -31 -4 0 -8 101 -8 224 l0 225 -101 3 c-55 2 -103 1 -105
-1 -2 -2 -4 -153 -4 -336 0 -369 7 -333 -72 -398 -170 -141 -191 -156 -338
-253 -47 -31 -101 -67 -121 -80 -19 -13 -39 -24 -43 -24 -4 0 -26 -13 -49 -28
-23 -15 -82 -48 -132 -72 -49 -24 -107 -54 -128 -67 -34 -22 -41 -23 -65 -10
-99 50 -271 143 -294 158 -14 11 -29 19 -32 19 -13 0 -284 180 -346 229 -14
11 -52 41 -86 68 -33 26 -79 64 -102 84 l-42 36 0 336 -1 337 -74 0 c-41 0
-77 5 -80 10 -3 6 -17 10 -31 10 -14 0 -23 5 -22 13 3 13 -1 14 -91 16 -35 0
-62 3 -59 6 11 11 132 14 150 4 14 -7 23 -5 39 9 11 11 37 22 57 26 66 11 570
7 574 -4 2 -6 30 -14 63 -17 33 -3 66 -10 73 -16 8 -7 12 -5 12 6 0 11 5 14
17 10 10 -4 14 -2 9 5 -3 6 2 15 11 21 12 7 -150 10 -504 11 -413 0 -522 -2
-526 -12 -4 -10 -6 -10 -6 0 -1 6 -6 12 -12 12 -5 0 -7 -4 -4 -10 3 -5 2 -10
-4 -10 -5 0 -11 5 -13 11 -2 6 -15 9 -29 7 l-26 -3 24 -53 23 -52 92 5 c51 3
101 2 110 -1 17 -5 18 -24 18 -232 l-1 -227 -51 55 c-54 58 -166 204 -213 280
-45 72 -125 212 -125 220 0 4 -13 31 -30 61 -16 30 -30 59 -30 66 0 6 -14 41
-30 76 -17 36 -30 70 -30 75 0 5 -14 54 -31 108 l-31 98 28 24 c26 21 52 40
124 89 14 9 44 32 67 50 23 18 45 33 48 33 4 0 22 12 40 28 19 15 54 42 79 61
l46 33 0 144 c0 79 -3 144 -8 144 -7 0 -68 -41 -142 -95 -15 -11 -53 -37 -83
-58 -30 -21 -61 -44 -67 -52 -7 -8 -17 -15 -22 -15 -6 0 -25 -12 -43 -27 -18
-16 -68 -53 -111 -83 -44 -30 -84 -59 -91 -65 -6 -5 -41 -31 -76 -58 l-64 -47
10 -43 c20 -87 97 -345 126 -425 30 -80 140 -311 183 -382 42 -70 170 -258
189 -278 10 -12 19 -24 19 -28 0 -11 194 -226 264 -293 113 -107 136 -127 256
-227 44 -36 184 -139 218 -159 9 -6 51 -33 92 -60 71 -48 139 -90 234 -144
127 -72 368 -191 388 -191 29 0 342 157 448 225 19 12 57 35 83 51 90 54 114
69 173 110 32 22 77 53 99 68 22 15 42 30 45 34 3 4 31 26 63 50 259 193 530
489 709 777 95 152 114 187 198 378 44 101 92 247 127 391 36 145 36 149 17
162 -10 7 -23 17 -29 22 -5 4 -37 28 -70 52 -33 24 -62 46 -65 49 -3 3 -12 11
-22 16 -9 6 -67 46 -129 90 -62 44 -146 104 -188 133 -42 28 -84 58 -93 66 -9
8 -26 19 -37 25 -19 11 -162 113 -222 160 -15 12 -33 23 -40 25 -8 3 -45 -27
-84 -70z"/>
<path d="M1528 2618 c-22 -19 -28 -44 -15 -62 11 -14 40 -16 242 -14 l230 3 3
26 c6 55 -9 59 -237 59 -151 0 -211 -3 -223 -12z"/>
<path d="M2163 2453 c-8 -21 -18 -51 -20 -67 -3 -16 -9 -40 -14 -53 -13 -34
-11 -40 4 -18 11 14 16 15 22 5 5 -8 4 -11 -3 -6 -12 7 -10 -20 3 -31 4 -4 5
-3 1 4 -7 14 49 47 64 38 5 -3 11 -1 15 5 10 16 25 12 26 -7 0 -13 2 -14 6 -4
4 10 9 8 20 -10 8 -14 12 -16 9 -6 -3 10 -9 36 -12 58 -4 22 -10 42 -14 44 -5
3 -6 14 -3 24 3 10 0 28 -6 40 -13 23 -41 29 -41 9 0 -9 -3 -9 -12 0 -19 19
-28 14 -45 -25z m93 -9 c1 -9 0 -13 -4 -10 -3 4 -7 14 -8 22 -1 9 0 13 4 10 3
-4 7 -14 8 -22z"/>
<path d="M1529 2413 c-21 -5 -29 -32 -18 -61 8 -22 10 -22 232 -22 236 0 247
2 247 47 0 16 -8 27 -26 33 -24 10 -402 12 -435 3z"/>
<path d="M2109 2263 c-6 -16 -12 -41 -13 -58 -1 -25 3 -30 22 -29 15 0 21 -4
18 -13 -3 -7 -1 -13 3 -13 21 0 18 28 -4 40 -19 10 -22 17 -14 31 7 14 6 19
-3 19 -8 0 -9 3 -3 8 11 8 19 42 10 42 -3 0 -10 -12 -16 -27z"/>
<path d="M1517 2189 c-9 -12 -13 -29 -10 -38 12 -35 35 -41 154 -41 100 0 120
3 140 19 20 16 22 23 14 47 l-10 29 -137 3 c-130 2 -137 2 -151 -19z"/>
<path d="M2310 2182 c0 -25 -18 -38 -32 -24 -8 8 -15 6 -26 -5 -14 -14 -17
-14 -24 3 -4 11 -5 -6 -2 -36 5 -53 23 -105 24 -69 0 35 49 30 50 -5 0 -4 7
-5 16 -2 8 3 12 2 9 -4 -3 -6 -1 -10 4 -10 6 0 11 -8 11 -17 0 -9 2 -14 5 -11
3 3 1 27 -5 54 -6 27 -13 69 -15 93 -4 45 -15 70 -15 33z"/>
<path d="M2175 2160 c-3 -5 -1 -10 4 -10 6 0 11 5 11 10 0 6 -2 10 -4 10 -3 0
-8 -4 -11 -10z"/>
<path d="M2164 2110 c0 -13 4 -16 10 -10 7 7 7 13 0 20 -6 6 -10 3 -10 -10z"/>
<path d="M2609 2116 c-15 -7 -31 -30 -43 -64 -21 -58 -14 -79 13 -45 10 11 28
23 41 25 13 2 24 11 26 22 1 10 7 23 13 29 7 7 8 2 5 -14 -2 -13 -2 -18 2 -11
3 6 10 10 15 6 5 -3 4 5 -2 18 -16 36 -41 49 -70 34z m20 -29 c8 -10 7 -14 -2
-14 -8 0 -14 6 -14 14 0 7 1 13 2 13 2 0 8 -6 14 -13z"/>
<path d="M2680 2040 c0 -5 5 -10 10 -10 6 0 10 5 10 10 0 6 -4 10 -10 10 -5 0
-10 -4 -10 -10z"/>
<path d="M2036 2005 c-4 -14 -4 -31 0 -37 4 -7 3 -8 -4 -4 -8 5 -12 -1 -12
-17 0 -29 26 -43 48 -25 13 11 14 11 7 -2 -5 -8 -10 -25 -11 -38 -2 -20 1 -23
17 -19 17 4 18 3 8 -9 -8 -10 -8 -14 0 -14 13 0 32 43 34 80 1 14 7 28 12 32
6 4 0 8 -13 8 -12 0 -25 7 -28 15 -4 8 -10 12 -15 9 -5 -3 -9 1 -10 8 0 7 -5
4 -10 -7 -7 -16 -9 -14 -6 13 4 38 -8 43 -17 7z"/>
<path d="M2120 1980 c0 -5 5 -10 11 -10 5 0 7 5 4 10 -3 6 -8 10 -11 10 -2 0
-4 -4 -4 -10z"/>
<path d="M2743 1897 c0 -15 6 -32 13 -38 8 -6 11 -16 7 -22 -4 -6 -1 -7 7 -2
7 4 16 2 21 -6 6 -9 9 -10 9 -2 0 7 -8 17 -17 22 -10 6 -13 11 -7 11 6 0 17
-6 23 -14 6 -7 24 -12 41 -10 16 2 31 0 34 -5 8 -12 107 -1 132 14 12 8 43 16
70 18 27 2 -32 4 -131 5 -213 1 -203 0 -188 10 10 7 10 12 -1 27 -13 18 -13
17 -13 -8z"/>
<path d="M2010 1900 c0 -5 5 -10 10 -10 6 0 10 5 10 10 0 6 -4 10 -10 10 -5 0
-10 -4 -10 -10z"/>
<path d="M2274 1863 c2 -16 5 -42 5 -60 1 -23 8 -36 24 -44 22 -12 22 -12 3
10 -22 24 -13 29 11 5 9 -9 25 -13 36 -10 13 3 25 -2 33 -12 10 -14 11 -9 2
28 -6 25 -10 60 -9 78 1 17 -3 32 -8 32 -6 0 -8 -7 -4 -16 4 -12 0 -14 -23 -8
-26 7 -28 6 -15 -9 8 -10 9 -17 3 -17 -6 0 -14 9 -17 20 -4 11 -11 18 -16 15
-5 -4 -9 -1 -9 4 0 6 -5 11 -10 11 -6 0 -9 -12 -6 -27z"/>
<path d="M3230 1860 c58 -4 128 -13 155 -20 28 -6 68 -15 90 -19 l40 -7 -34
-8 c-25 -6 -30 -11 -20 -17 11 -7 9 -9 -8 -9 -12 0 -24 -4 -27 -9 -4 -5 33 -8
86 -6 l92 2 28 44 c15 24 28 47 28 51 0 4 -120 7 -267 6 -210 -1 -245 -3 -163
-8z"/>
<path d="M2726 1852 c-3 -5 1 -9 9 -9 8 0 12 4 9 9 -3 4 -7 8 -9 8 -2 0 -6 -4
-9 -8z"/>
<path d="M2687 1817 c-9 -23 20 -49 60 -53 21 -3 65 -1 98 4 l60 10 -60 1
c-37 1 -55 5 -47 10 9 5 -3 11 -37 18 -36 7 -49 7 -45 -1 3 -6 -1 -3 -9 7 -11
13 -16 14 -20 4z"/>
<path d="M2850 1820 c0 -5 5 -10 10 -10 6 0 10 5 10 10 0 6 -4 10 -10 10 -5 0
-10 -4 -10 -10z"/>
<path d="M1828 1803 c21 -8 13 -21 -15 -26 -20 -3 -15 -5 17 -7 96 -6 180 -5
180 3 0 4 -6 7 -14 7 -7 0 -27 7 -42 15 -16 8 -53 15 -84 14 -30 0 -49 -3 -42
-6z"/>
<path d="M2585 1800 c-4 -6 -11 -8 -16 -5 -5 4 -9 1 -9 -4 0 -15 13 -14 36 4
10 8 14 15 7 15 -6 0 -15 -5 -18 -10z"/>
<path d="M2076 1783 c-6 -14 -5 -15 5 -6 7 7 10 15 7 18 -3 3 -9 -2 -12 -12z"/>
<path d="M2484 1766 c-4 -17 -9 -40 -10 -51 -2 -11 -5 -31 -9 -45 -5 -24 -5
-24 4 -2 6 12 14 22 18 22 13 0 39 -20 27 -20 -21 0 -22 -69 -2 -87 10 -9 20
-14 22 -12 12 14 26 53 41 109 9 36 18 73 21 83 5 15 1 17 -20 11 -18 -4 -26
-2 -26 6 0 9 -6 7 -19 -4 -19 -17 -19 -17 -15 1 4 13 0 20 -9 20 -9 0 -19 -14
-23 -31z"/>
<path d="M1510 1570 c-8 -14 -8 -26 0 -40 11 -20 19 -20 243 -18 l232 3 3 23
c7 50 -3 52 -244 52 -213 0 -224 -1 -234 -20z"/>
<path d="M2732 1581 c-8 -5 -12 -21 -10 -37 l3 -29 133 -3 132 -3 12 25 c21
48 1 56 -136 56 -66 0 -127 -4 -134 -9z"/>
<path d="M2510 1563 c11 -24 30 -31 30 -11 0 6 -3 8 -7 5 -3 -4 -12 1 -20 11
-13 15 -13 15 -3 -5z"/>
<path d="M2340 1490 c0 -5 5 -10 11 -10 5 0 7 5 4 10 -3 6 -8 10 -11 10 -2 0
-4 -4 -4 -10z"/>
<path d="M2340 1459 c0 -5 5 -7 10 -4 6 3 10 8 10 11 0 2 -4 4 -10 4 -5 0 -10
-5 -10 -11z"/>
<path d="M2356 1407 c3 -10 9 -15 12 -12 3 3 0 11 -7 18 -10 9 -11 8 -5 -6z"/>
<path d="M2388 1372 c5 -15 4 -15 -11 -3 -15 12 -17 11 -17 -6 0 -31 36 -70
64 -70 26 0 47 23 61 66 7 22 5 23 -20 18 -15 -2 -40 -1 -56 3 -23 7 -27 6
-21 -8z m29 -37 c0 -8 -4 -12 -9 -9 -5 3 -6 10 -3 15 9 13 12 11 12 -6z"/>
<path d="M1512 1363 c-6 -10 -6 -28 -1 -40 8 -22 13 -23 122 -23 123 0 142 7
135 52 -3 22 -6 23 -125 26 -108 2 -123 1 -131 -15z"/>
<path d="M1887 1373 c-13 -13 -7 -61 9 -67 9 -3 80 -6 159 -6 156 0 173 6 161
55 l-6 25 -159 0 c-87 0 -161 -3 -164 -7z"/>
<path d="M2727 1373 c-11 -11 -8 -48 5 -61 8 -8 51 -12 129 -12 94 0 121 3
133 16 19 18 19 20 6 45 -10 17 -22 19 -139 19 -70 0 -131 -3 -134 -7z"/>
<path d="M1522 1168 c-15 -15 -16 -60 0 -76 9 -9 98 -12 338 -12 316 0 328 1
345 20 15 16 17 26 9 48 l-9 27 -336 3 c-252 2 -338 -1 -347 -10z"/>
<path d="M2580 1155 c-11 -20 -10 -28 4 -50 l16 -25 185 0 c172 0 186 1 205
20 24 24 24 29 4 58 -15 21 -20 22 -208 22 l-193 0 -13 -25z"/>
</g>
</svg>
